<svg xmlns="http://www.w3.org/2000/svg" width="50" height="50" viewBox="0 0 50 50"><path fill="#fff" d="M41.25 2.25c-3.866 0-7 3.135-7 7 0 .67.1 1.318.275 1.933L14.062 19.76c-1.21-2.096-3.47-3.51-6.062-3.51-3.865 0-7 3.135-7 7s3.135 7 7 7c2.025 0 3.845-.865 5.124-2.24l13.187 9.477c-.515.975-.81 2.083-.81 3.263 0 3.866 3.135 7 7 7s7-3.134 7-7c0-3.864-3.135-7-7-7-2.057 0-3.898.895-5.182 2.307L14.15 26.593c.542-.993.85-2.132.85-3.343 0-.65-.096-1.277-.262-1.875l20.48-8.584c1.216 2.07 3.458 3.462 6.03 3.462 3.867 0 7-3.134 7-7 .002-3.867-3.132-7.002-6.998-7.002z"/></svg>