<svg xmlns="http://www.w3.org/2000/svg" width="34.25" height="27.75" viewBox="99.292 81.01 34.25 27.75" enable-background="new 99.292 81.01 34.25 27.75"><g fill="#fff"><path d="M124.407 94.415c-1.27-.247-.652-.93-.652-.93s1.242-2.05-.246-3.54c-1.85-1.847-6.335.234-6.335.234-1.713.53-1.258-.244-1.016-1.563 0-1.553-.534-4.18-5.098-2.628-4.562 1.56-8.476 7.027-8.476 7.027-2.725 3.633-2.362 6.44-2.362 6.44.68 6.198 7.27 7.9 12.392 8.306 5.39.422 12.663-1.858 14.868-6.545 2.205-4.692-1.802-6.55-3.077-6.803zm-11.393 11.6c-5.352.25-9.678-2.435-9.678-6.003 0-3.575 4.326-6.442 9.678-6.688 5.354-.247 9.688 1.96 9.688 5.526 0 3.57-4.334 6.92-9.688 7.166zM111.945 95.678c-5.38.63-4.76 5.67-4.76 5.67s-.056 1.598 1.442 2.408c3.148 1.705 6.392.675 8.03-1.44 1.64-2.117.677-7.264-4.712-6.638zm-1.357 7.075c-1.006.118-1.814-.462-1.814-1.302 0-.837.72-1.713 1.727-1.817 1.153-.108 1.905.557 1.905 1.396 0 .835-.817 1.61-1.817 1.723zm3.174-2.702c-.342.257-.76.222-.94-.085-.187-.298-.116-.773.228-1.023.4-.297.812-.21.994.086.18.302.048.76-.282 1.023zM127.027 92.232c.435 0 .804-.32.863-.74.008-.03.012-.058.012-.093.658-5.91-4.842-4.896-4.842-4.896-.488 0-.88.396-.88.89 0 .483.392.88.88.88 3.95-.872 3.078 3.078 3.078 3.078.003.49.4.88.89.88zM126.387 81.917c-1.902-.443-3.857-.062-4.404.043-.043.004-.082.044-.12.054-.02.004-.03.02-.03.02-.54.154-.938.654-.938 1.245 0 .703.57 1.282 1.283 1.282 0 0 .69-.095 1.16-.276.467-.188 4.404-.14 6.36 3.146 1.066 2.396.47 4.002.396 4.26 0 0-.254.623-.254 1.236 0 .708.57 1.15 1.277 1.15.592 0 1.088-.08 1.23-1.08h.01c2.102-6.998-2.567-10.287-5.97-11.08z"/></g></svg>