<svg xmlns="http://www.w3.org/2000/svg" width="33.688" height="27.312" viewBox="133.406 136.062 33.688 27.312" enable-background="new 133.406 136.062 33.688 27.312"><g fill="#fff"><path d="M155.896 144.684c.365 0 .73.025 1.088.066-.98-4.553-5.844-7.936-11.397-7.936-6.21 0-11.297 4.23-11.297 9.606 0 3.104 1.69 5.65 4.52 7.627l-1.13 3.397 3.948-1.98c1.414.28 2.547.567 3.957.567.354 0 .707-.018 1.056-.045-.22-.756-.348-1.547-.348-2.366 0-4.932 4.237-8.936 9.604-8.936zm-6.076-3.064c.853 0 1.414.562 1.414 1.41s-.562 1.413-1.414 1.413c-.846 0-1.694-.565-1.694-1.414 0-.85.85-1.41 1.694-1.41zm-7.904 2.823c-.85 0-1.7-.567-1.7-1.414 0-.85.853-1.41 1.7-1.41s1.41.562 1.41 1.41c0 .845-.564 1.413-1.41 1.413zM166.207 153.488c0-4.518-4.52-8.198-9.6-8.198-5.374 0-9.605 3.683-9.605 8.198 0 4.523 4.23 8.197 9.606 8.197 1.125 0 2.263-.283 3.392-.565l3.102 1.696-.852-2.823c2.268-1.7 3.957-3.957 3.957-6.505zm-12.71-1.413c-.563 0-1.132-.562-1.132-1.132 0-.562.565-1.13 1.13-1.13.855 0 1.415.565 1.415 1.13 0 .573-.56 1.132-1.414 1.132zm6.21 0c-.56 0-1.12-.562-1.12-1.132 0-.562.562-1.13 1.12-1.13.85 0 1.415.565 1.415 1.13 0 .573-.565 1.132-1.414 1.132z"/></g></svg>