<svg xmlns="http://www.w3.org/2000/svg" width="16.381" height="14.14" viewBox="8.225 3.952 16.381 14.14" enable-background="new 8.225 3.952 16.381 14.14"><path fill="#fff" d="M8.225 8.152v5.85h3.33l4.985 4.088.002-14.032-4.985 4.093H8.225v.002zM18.45 7.48c-.29-.288-.755-.288-1.048.002-.287.29-.287.758.002 1.048.64.64 1.034 1.518 1.034 2.493 0 .972-.394 1.85-1.033 2.487-.292.29-.292.757 0 1.05.142.146.33.218.522.218s.386-.073.525-.217c.904-.903 1.465-2.16 1.465-3.536.003-1.383-.56-2.64-1.466-3.544zm1.702-1.7c-.293-.29-.757-.29-1.048 0-.29.29-.29.76 0 1.048 1.075 1.075 1.743 2.553 1.743 4.193 0 1.64-.663 3.117-1.742 4.193-.293.288-.293.756 0 1.047.14.143.334.218.525.218.19 0 .385-.075.523-.218 1.342-1.34 2.176-3.196 2.176-5.24-.006-2.04-.837-3.9-2.178-5.24zm1.614-1.612c-.294-.29-.758-.288-1.047 0-.292.29-.292.76 0 1.048 1.487 1.488 2.403 3.535 2.403 5.806 0 2.268-.916 4.317-2.402 5.805-.29.29-.29.757.003 1.05.143.14.332.215.522.215s.38-.077.524-.217c1.748-1.753 2.837-4.183 2.835-6.853.002-2.674-1.086-5.104-2.84-6.854z"/></svg>