<svg xmlns="http://www.w3.org/2000/svg" width="337" height="262" viewBox="0 0 337 262"><g><path fill="#fff" d="M161 192.645V40.397C161 23.483 144.89 24 144.89 24H85.776S68 23.483 68 40.397v152.248C68 209.55 85.776 210 85.776 210h59.113s16.11-.45 16.11-17.355zM103.787 37c-.61 0-2.787-1.68-2.787-2.71v-.494c0-1.05 2.17-1.795 2.787-1.795h23.092c.613 0 1.12.766 1.12 1.796v.495c0 1.052-.503 2.71-1.12 2.71h-23.093zM76 180V45h77v135H76zm31.555 14.07c0-4.3 3.48-7.777 7.778-7.777 4.295 0 7.777 3.48 7.777 7.777 0 4.29-3.482 7.777-7.777 7.777-4.3.003-7.778-3.486-7.778-7.777zM112.854 210h152.248C282.016 210 281 193.863 281 193.863V134.75S282.016 117 265.102 117H112.854C95.947 117 95 134.75 95 134.75v59.113S95.947 210 112.854 210zM268 152.762c0-.61 2.177-2.762 3.208-2.762h.495c1.05 0 1.297 2.143 1.297 2.762v23.092c0 .613-.268 1.146-1.297 1.146h-.495c-1.052 0-3.208-.53-3.208-1.146v-23.092zM125 125h135v77H125v-77zm-13.573 31.53c4.3 0 7.778 3.478 7.778 7.776 0 4.295-3.48 7.776-7.778 7.776-4.29 0-7.777-3.48-7.777-7.776 0-4.298 3.486-7.777 7.777-7.777z"/><path d="M125 125h135v77H125z"/><g stroke="#fff" stroke-width="1.5" stroke-miterlimit="10" fill="none"><path d="M256.742 105.357c-.03-.853-.078-1.702-.143-2.546"/><path stroke-dasharray="5.0249,5.0249" d="M256.03 97.818c-4.986-32.424-34.105-57.068-69.224-58.068"/><path d="M184.316 39.72c-.848.002-1.696.02-2.55.05"/></g><path fill="#fff" d="M185 43.387c0 .895-.648 1.26-1.424.813l-6.738-3.887c-.775-.447-.777-1.18-.003-1.627l6.743-3.887c.775-.448 1.422-.082 1.422.812v7.775z"/><g enable-background="new" fill="#fff"><path d="M68.512 239.238h5.027v12.398h1.757l-1.3 2.8h-4.173V242.04h-1.312v-2.802zm3.246-6.352c.344 0 .693.097 1.05.287.355.19.632.46.83.804.2.344.3.707.3 1.09-.008.39-.107.756-.3 1.096-.19.34-.456.607-.796.803-.34.196-.7.29-1.084.28-.39 0-.756-.097-1.096-.292-.34-.195-.604-.46-.79-.79s-.284-.696-.288-1.09c-.004-.397.092-.76.287-1.097.196-.345.474-.61.833-.797.36-.19.71-.285 1.055-.294zm9.117 6.235H75.94v-2.214h4.935v-1.043h-4.85v-2.203h4.85v-.95h3.716l.013.95h5.508L89 235.86h-4.395v1.045h5.45l-1.103 2.215h-4.348v.983h5.59l-1.113 2.168H75.65v-2.167h5.226v-.982zm-5.015 15.47v-11.484h13.934v9.28l-3.586 2.157h-3.645v-2.156h3.504v-7.16h-6.492v1.078h6.223l-.54 1.793-5.683-.012v1.03h5.906l-.49 1.78h-5.415v2.027l-.164.082-3.55 1.585zM97.07 246.668l-1.43 6.668-3.585.012 2.086-8.812h2.92v-2.426h-3l-1.9-8.133h3.528l1.37 5.965v-7.02h3.48v20.555l-3.48 1.418.013-8.227zm9.06-12.902h7.476v8.473l-3.492 2.917h-8.66v-2.602h8.66v-6.212h-4.98l-.527 1.066h-3.785l2.016-4.57h3.738l-.447.926zm1.628 20.93v-2.45h1.723v-2.988h-8.296v-2.508h8.297v-.996h3.493v.996h1.336l-.868 2.508h-.47v2.625l-2.93 2.812h-2.284zm-3.094-5.145c.336 0 .668.09.996.265.328.176.588.436.78.78.19.34.286.68.286 1.007-.008.367-.104.71-.287 1.03s-.437.575-.757.763c-.32.188-.66.277-1.02.27-.367 0-.713-.092-1.037-.275-.324-.182-.576-.434-.756-.75-.18-.314-.266-.662-.258-1.037 0-.367.092-.71.275-1.03.183-.32.44-.567.773-.743.332-.18.67-.27 1.004-.28zm.985-11.905c.358 0 .726.1 1.1.3s.67.48.886.85c.215.367.322.75.322 1.147-.008.406-.115.79-.322 1.147-.207.358-.488.643-.844.85s-.736.307-1.143.3c-.415 0-.798-.104-1.15-.306-.35-.203-.63-.484-.837-.845-.207-.36-.312-.74-.316-1.145-.004-.402.104-.786.322-1.153.21-.367.5-.647.872-.844s.74-.296 1.107-.303zM128.477 236.636l-11.777.562v-3.152l21.375-.996-.902 3.164-4.594.224-.013 3.246h5.31l-1.114 2.577h-4.195l.023 3.06 5.368-.01-1.102 2.577-4.266.012v4.02l-3.88 2.647-11.507.012v-2.474l11.273.012v-4.242l-12.14.023v-2.59h12.14v-3.06l-11.836-.012v-2.555h11.836v-3.047zM151.07 235.195l-1.23 2.824h-2.6v15.667l-3.048 1.266V238.02h-3.855v-2.824h3.855v-2.215h3.047v2.216h3.83zm-10.734 18.422l.715-14.238h2.79l-.527 14.237h-2.977zm7.22-14.24h2.753l.573 14.19h-2.906l-.422-14.19zm3.937-6.232h9.55v18.457h1.16l-1.206 2.824h-3.152v-18.41h-3.094v17.367l-3.257 1.5v-21.738z"/></g><g enable-background="new" fill="#C0A45C"><path d="M173.98 233.777l-.983 2.695h-4.395v1.323h4.722V251.6l-2.647 2.685h-1.534V251.6h1.065v-11.133h-1.605v12.95l-3.117 1.383v-18.328h-.82v-2.695h2.73c.117-.21.29-.47.52-.773.23-.304.62-.467 1.167-.486.547-.02.983.045 1.312.193s.55.325.668.528l.34.54h2.577zm11.825.118l-1.03 2.473h-7.103l-.516 1.512h-3.353l1.535-5.027h3.353l-.292 1.043h7.407zm-11.133 8.437h3.13l.01 8.953 1.173.54V240.75h-4.617v-2.438h11.46v2.987l-3.046 1.417v-1.968h-.655v4.02h3.772l-1.114 2.392h-2.66v4.957h3.984l-1.147 2.437-5.93.012-2.25-.95-2.1 1.182-.01-12.47zM193.715 233.953l4.36.012-1.35 2.812-3.633.012-.844 5.237h.772v-3.938h3.6v3.937l1.65.012-1.195 2.647-.457-.012v3.34h1.97l-1.185 2.648h-.785l-.012 2.754-3.594 1.583.012-4.336h-4.137v-2.648h4.137v-3.34h-4.065v-2.38l.972-5.507h-1.043v-2.837h1.57l.197-1.055h3.28l-.222 1.055zm4.828 0h3.07l.305-1.195h4.055l-.375 1.195h4.64l-1.24 2.824h-4.078l-.95 2.94 6.272-.012-1.324 2.85h-5.543l-.738 2.32 6.996.01v3.6l-3.375 3.597 1.828 2.133h-4.56l-4.383-5.25h4.195l.55.633 2.018-2.262-7.36.023v-2.44l.798-2.366-.797-.013v-2.835h1.594l.845-2.93-2.438.012v-2.835h-.004z"/></g><g enable-background="new" fill="#fff"><path d="M221.98 234.62h11.414v16.665l-2.977 3.152h-5.332v-3.035h4.395v-13.957h-8.074l-3.48 17.027h-3.972l3.526-17.027h-5.332v-2.824h.95l-.6-1.43h3.892l.738 1.43h.926l.328-1.57h3.914l-.316 1.57zm3.364 6.036l3.164 8.074h-4.22l-3.163-8.074h4.22zM236.71 251.953h21.34l-1.218 2.496h-20.12v-2.497zm21.26-7.512l-1.185 2.345-19.992-.012v-2.31l8.285-.01c.094-.157.273-.408.54-.752.265-.344.737-.514 1.417-.51s1.215.09 1.604.26.64.355.75.566l.258.445 8.32-.02zm-17.943-11.437v8.978l-3.223 1.113v-10.09h3.223zm2.227 14.216l1.898 4.335h-3.715l-1.898-4.336h3.714zm2.52-14.3v8.94l-3.458 1.15v-10.09h3.457zm5.132 9.798h-4.862l3.914-3.562-2.73-2.742h4.513l.82.562 1.396-1.384-6.95-.012v-2.59h11.813v2.4l-3.962 3.798 4.547 3.68h-4.945l-2.05-1.43-1.504 1.28zm2.24 4.5h3.714l-1.897 4.337h-3.715l1.897-4.336zM260.852 234.01h4.172l.6-1.193h4.45l-.456 1.194h12.06v17.686l-3.81 3.012h-1.922v-2.73h2.19v-15.2h-13.733v17.063l-3.55 1.185V234.01zm4.933 4.55h11.12l-.01 11.952-3.82 2.72h-7.29v-14.673zm7.57 2.706h-4.008v9.164h4.008v-9.164z"/></g></g></svg>